<mxfile host="app.diagrams.net" modified="2022-11-25T21:43:02.789Z" agent="5.0 (X11; Ubuntu)" version="20.6.0" etag="u968Ye3SgR2eK1Twy9JE" type="github">
  <diagram id="Q_WGpO6iKp91jf6YWz4m" name="Page-1">
    <mxGraphModel dx="1364" dy="820" grid="1" gridSize="10" guides="1" tooltips="1" connect="1" arrows="1" fold="1" page="1" pageScale="1" pageWidth="850" pageHeight="1100" math="0" shadow="0">
      <root>
        <mxCell id="0" />
        <mxCell id="1" parent="0" />
        <mxCell id="uzBpXemEHPgT1cX0Ykao-4" style="edgeStyle=orthogonalEdgeStyle;rounded=0;orthogonalLoop=1;jettySize=auto;html=1;exitX=0.5;exitY=0.5;exitDx=0;exitDy=0;exitPerimeter=0;" edge="1" parent="1" source="uzBpXemEHPgT1cX0Ykao-1" target="uzBpXemEHPgT1cX0Ykao-3">
          <mxGeometry relative="1" as="geometry" />
        </mxCell>
        <mxCell id="uzBpXemEHPgT1cX0Ykao-1" value="Actor" style="shape=umlActor;verticalLabelPosition=bottom;verticalAlign=top;html=1;outlineConnect=0;" vertex="1" parent="1">
          <mxGeometry x="410" y="400" width="30" height="60" as="geometry" />
        </mxCell>
        <mxCell id="uzBpXemEHPgT1cX0Ykao-2" value="" style="swimlane;startSize=0;" vertex="1" parent="1">
          <mxGeometry x="360" y="120" width="200" height="200" as="geometry" />
        </mxCell>
        <mxCell id="uzBpXemEHPgT1cX0Ykao-3" value="Actor" style="shape=umlActor;verticalLabelPosition=bottom;verticalAlign=top;html=1;outlineConnect=0;" vertex="1" parent="1">
          <mxGeometry x="185" y="130" width="30" height="60" as="geometry" />
        </mxCell>
        <mxCell id="uzBpXemEHPgT1cX0Ykao-5" value="" style="shape=xor;whiteSpace=wrap;html=1;" vertex="1" parent="1">
          <mxGeometry x="700" y="180" width="60" height="80" as="geometry" />
        </mxCell>
      </root>
    </mxGraphModel>
  </diagram>
</mxfile>
